<svg width="26" height="26" viewBox="0 0 26 26" fill="none" xmlns="http://www.w3.org/2000/svg">
<path d="M15.9727 4.10468C15.9727 4.51239 16.053 4.91611 16.209 5.29279C16.365 5.66946 16.5937 6.01172 16.882 6.30002C17.1703 6.58831 17.5125 6.817 17.8892 6.97303C18.2659 7.12905 18.6696 7.20936 19.0773 7.20936C19.485 7.20936 19.8888 7.12905 20.2654 6.97303C20.6421 6.817 20.9844 6.58831 21.2727 6.30002C21.561 6.01172 21.7897 5.66946 21.9457 5.29279C22.1017 4.91611 22.182 4.51239 22.182 4.10468C22.182 3.28127 21.8549 2.49158 21.2727 1.90934C20.6904 1.3271 19.9007 1 19.0773 1C18.2539 1 17.4642 1.3271 16.882 1.90934C16.2998 2.49158 15.9727 3.28127 15.9727 4.10468Z" stroke="#486284" stroke-width="1.71" stroke-linecap="round" stroke-linejoin="round"/>
<path d="M23.7327 14.9712V13.4188C23.7327 10.8468 21.6477 8.76172 19.0756 8.76172C17.3217 8.76172 15.7943 9.73126 15 11.1636" stroke="#486284" stroke-width="1.71" stroke-linecap="round" stroke-linejoin="round"/>
<path d="M3.55078 4.10468C3.55078 4.92809 3.87788 5.71778 4.46012 6.30002C5.04236 6.88226 5.83205 7.20936 6.65546 7.20936C7.47887 7.20936 8.26856 6.88226 8.8508 6.30002C9.43304 5.71778 9.76014 4.92809 9.76014 4.10468C9.76014 3.28127 9.43304 2.49158 8.8508 1.90934C8.26856 1.3271 7.47887 1 6.65546 1C5.83205 1 5.04236 1.3271 4.46012 1.90934C3.87788 2.49158 3.55078 3.28127 3.55078 4.10468Z" stroke="#486284" stroke-width="1.71" stroke-linecap="round" stroke-linejoin="round"/>
<path d="M2 14.9712V13.4188C2 10.8468 4.08507 8.76172 6.65712 8.76172C8.411 8.76172 9.93844 9.73126 10.7327 11.1636" stroke="#486284" stroke-width="1.71" stroke-linecap="round" stroke-linejoin="round"/>
<path d="M9.76172 13.4152C9.76172 14.2386 10.0888 15.0283 10.6711 15.6106C11.2533 16.1928 12.043 16.5199 12.8664 16.5199C13.6898 16.5199 14.4795 16.1928 15.0617 15.6106C15.644 15.0283 15.9711 14.2386 15.9711 13.4152C15.9711 12.5918 15.644 11.8021 15.0617 11.2199C14.4795 10.6376 13.6898 10.3105 12.8664 10.3105C12.043 10.3105 11.2533 10.6376 10.6711 11.2199C10.0888 11.8021 9.76172 12.5918 9.76172 13.4152Z" stroke="#486284" stroke-width="1.71" stroke-linecap="round" stroke-linejoin="round"/>
<path d="M17.5252 22.7293C17.5252 20.1572 15.4401 18.0723 12.868 18.0723C10.296 18.0723 8.21094 20.1572 8.21094 22.7293" stroke="#486284" stroke-width="1.71" stroke-linecap="round" stroke-linejoin="round"/>
</svg>
