<svg width="12" height="16" viewBox="0 0 12 16" fill="none" xmlns="http://www.w3.org/2000/svg">
<path d="M2 0C1.46957 0 0.960859 0.210714 0.585786 0.585786C0.210714 0.960859 0 1.46957 0 2V14C0 14.5304 0.210714 15.0391 0.585786 15.4142C0.960859 15.7893 1.46957 16 2 16H11.5C11.6326 16 11.7598 15.9473 11.8536 15.8536C11.9473 15.7598 12 15.6326 12 15.5C12 15.3674 11.9473 15.2402 11.8536 15.1464C11.7598 15.0527 11.6326 15 11.5 15H2C1.73478 15 1.48043 14.8946 1.29289 14.7071C1.10536 14.5196 1 14.2652 1 14H11C11.2652 14 11.5196 13.8946 11.7071 13.7071C11.8946 13.5196 12 13.2652 12 13V2C12 1.46957 11.7893 0.960859 11.4142 0.585786C11.0391 0.210714 10.5304 0 10 0H2ZM6.75 3.75C6.75 3.94891 6.67098 4.13968 6.53033 4.28033C6.38968 4.42098 6.19891 4.5 6 4.5C5.80109 4.5 5.61032 4.42098 5.46967 4.28033C5.32902 4.13968 5.25 3.94891 5.25 3.75C5.25 3.55109 5.32902 3.36032 5.46967 3.21967C5.61032 3.07902 5.80109 3 6 3C6.19891 3 6.38968 3.07902 6.53033 3.21967C6.67098 3.36032 6.75 3.55109 6.75 3.75ZM6.5 10.5C6.5 10.6326 6.44732 10.7598 6.35355 10.8536C6.25979 10.9473 6.13261 11 6 11C5.86739 11 5.74021 10.9473 5.64645 10.8536C5.55268 10.7598 5.5 10.6326 5.5 10.5V6.5C5.5 6.36739 5.55268 6.24021 5.64645 6.14645C5.74021 6.05268 5.86739 6 6 6C6.13261 6 6.25979 6.05268 6.35355 6.14645C6.44732 6.24021 6.5 6.36739 6.5 6.5V10.5Z" fill="#486284"/>
</svg>
