<svg width="26" height="26" viewBox="0 0 26 26" fill="none" xmlns="http://www.w3.org/2000/svg">
<g clip-path="url(#clip0_1365_16654)">
<path d="M22.7484 13.8091H6.49836C5.97727 13.8089 5.46996 13.6417 5.0508 13.3321C4.63164 13.0225 4.32268 12.5868 4.1692 12.0888L0.919198 3.96382C0.742673 3.3501 0.814049 2.69162 1.11798 2.12998C1.42191 1.56833 1.93411 1.1484 2.54443 0.960471C3.15476 0.772548 3.81446 0.831648 4.38166 1.12507C4.94887 1.41848 5.37827 1.92277 5.57753 2.52949L8.29778 8.93415H22.7484C23.3948 8.93415 24.0148 9.19096 24.4719 9.64808C24.929 10.1052 25.1859 10.7252 25.1859 11.3716C25.1859 12.0181 24.929 12.6381 24.4719 13.0952C24.0148 13.5524 23.3948 13.8091 22.7484 13.8091Z" stroke="#486284" stroke-width="1.5" stroke-linecap="round" stroke-linejoin="round"/>
<path d="M4.0625 22.75C4.0625 23.3964 4.3193 24.0164 4.77643 24.4736C5.23355 24.9306 5.85353 25.1875 6.5 25.1875C7.14647 25.1875 7.76645 24.9306 8.22357 24.4736C8.6807 24.0164 8.9375 23.3964 8.9375 22.75C8.9375 22.1036 8.6807 21.4836 8.22357 21.0264C7.76645 20.5694 7.14647 20.3125 6.5 20.3125C5.85353 20.3125 5.23355 20.5694 4.77643 21.0264C4.3193 21.4836 4.0625 22.1036 4.0625 22.75Z" stroke="#486284" stroke-width="1.5" stroke-linecap="round" stroke-linejoin="round"/>
<path d="M20.3125 22.75C20.3125 23.3964 20.5694 24.0164 21.0264 24.4736C21.4836 24.9306 22.1036 25.1875 22.75 25.1875C23.3964 25.1875 24.0164 24.9306 24.4736 24.4736C24.9306 24.0164 25.1875 23.3964 25.1875 22.75C25.1875 22.1036 24.9306 21.4836 24.4736 21.0264C24.0164 20.5694 23.3964 20.3125 22.75 20.3125C22.1036 20.3125 21.4836 20.5694 21.0264 21.0264C20.5694 21.4836 20.3125 22.1036 20.3125 22.75Z" stroke="#486284" stroke-width="1.5" stroke-linecap="round" stroke-linejoin="round"/>
<path d="M8.9375 22.75H20.3125" stroke="#486284" stroke-width="1.5" stroke-linecap="round" stroke-linejoin="round"/>
<path d="M8.60938 21.5283L21.943 13.8096" stroke="#486284" stroke-width="1.5" stroke-linecap="round" stroke-linejoin="round"/>
<path d="M20.6423 21.5283L7.30859 13.8096" stroke="#486284" stroke-width="1.5" stroke-linecap="round" stroke-linejoin="round"/>
<path d="M8.9375 1.625L10.5625 5.6875" stroke="#486284" stroke-width="1.5" stroke-linecap="round" stroke-linejoin="round"/>
</g>
<defs>
<clipPath id="clip0_1365_16654">
<rect width="26" height="26" fill="white"/>
</clipPath>
</defs>
</svg>
