<svg width="29" height="26" viewBox="0 0 29 26" fill="none" xmlns="http://www.w3.org/2000/svg">
<path d="M13.3282 12.7835C13.3282 12.5223 13.2241 12.2718 13.0387 12.0871C12.8533 11.9024 12.6018 11.7986 12.3396 11.7986C12.1177 11.7904 11.8995 11.8569 11.7201 11.9873C11.5408 12.1178 11.4107 12.3045 11.3509 12.5176C11.324 12.6304 11.2595 12.7308 11.1679 12.8024C11.0764 12.8739 10.9631 12.9124 10.8467 12.9115C10.7329 12.9135 10.6217 12.8779 10.5304 12.8101C10.4392 12.7424 10.3731 12.6464 10.3425 12.5373C10.3057 12.2761 10.1664 12.0401 9.95501 11.8812C9.74364 11.7224 9.47758 11.6537 9.21537 11.6903C8.95316 11.7268 8.71627 11.8657 8.55682 12.0762C8.39736 12.2868 8.32841 12.5518 8.36511 12.813C8.38754 13.1092 8.4687 13.3979 8.60391 13.6626C8.73911 13.9272 8.92567 14.1626 9.15279 14.3549C9.3799 14.5473 9.64306 14.6928 9.92703 14.7832C10.211 14.8735 10.5101 14.9069 10.8071 14.8813C11.1129 14.9196 11.4233 14.8948 11.719 14.8084C12.0148 14.7219 12.2894 14.5757 12.526 14.3789C12.7625 14.1821 12.9558 13.9389 13.0938 13.6644C13.2319 13.3899 13.3117 13.0901 13.3282 12.7835Z" fill="#486284"/>
<path d="M20.0836 11.7986C19.863 11.7899 19.6458 11.8549 19.4666 11.9834C19.2874 12.112 19.1566 12.2965 19.0949 12.5077C19.0589 12.6097 18.992 12.698 18.9035 12.7605C18.8149 12.823 18.7091 12.8566 18.6006 12.8566C18.4921 12.8566 18.3862 12.823 18.2977 12.7605C18.2091 12.698 18.1422 12.6097 18.1063 12.5077C18.0464 12.2947 17.9164 12.1079 17.737 11.9775C17.5577 11.8471 17.3395 11.7806 17.1176 11.7888C16.8554 11.7888 16.6039 11.8925 16.4185 12.0772C16.2331 12.2619 16.1289 12.5124 16.1289 12.7736C16.1501 13.0693 16.2301 13.3579 16.3642 13.6225C16.4984 13.8871 16.684 14.1225 16.9104 14.3149C17.1367 14.5074 17.3992 14.6531 17.6826 14.7436C17.966 14.834 18.2646 14.8675 18.561 14.8419C18.858 14.8675 19.1572 14.8341 19.4411 14.7438C19.7251 14.6534 19.9883 14.5079 20.2154 14.3155C20.4425 14.1232 20.6291 13.8878 20.7643 13.6232C20.8995 13.3585 20.9806 13.0698 21.0031 12.7736C21.0012 12.5257 20.9055 12.2875 20.735 12.1068C20.5646 11.926 20.3319 11.816 20.0836 11.7986Z" fill="#486284"/>
<path d="M17.5446 17.2346C17.3191 17.1014 17.0497 17.0629 16.7957 17.1275C16.5417 17.1922 16.3239 17.3547 16.1901 17.5793C16.0003 17.7551 15.7754 17.889 15.5301 17.9722C15.2847 18.0553 15.0245 18.0859 14.7664 18.0619C14.5084 18.0859 14.2481 18.0553 14.0028 17.9722C13.7574 17.889 13.5325 17.7551 13.3427 17.5793C13.2858 17.4537 13.203 17.3414 13.0997 17.2497C12.9964 17.158 12.875 17.0889 12.7433 17.0469C12.6115 17.0049 12.4724 16.9909 12.3348 17.0058C12.1973 17.0207 12.0645 17.0642 11.9449 17.1334C11.8253 17.2027 11.7216 17.2962 11.6406 17.4079C11.5595 17.5196 11.5029 17.647 11.4744 17.7818C11.4458 17.9166 11.446 18.056 11.475 18.1907C11.5039 18.3255 11.5609 18.4527 11.6422 18.5642C11.9951 19.0529 12.4671 19.444 13.0136 19.7007C13.5602 19.9575 14.1634 20.0714 14.7664 20.0316C15.3676 20.0735 15.9697 19.9627 16.5161 19.7095C17.0626 19.4562 17.5355 19.0689 17.8906 18.5839C18.0243 18.3592 18.063 18.0909 17.9981 17.8378C17.9332 17.5848 17.7701 17.3678 17.5446 17.2346Z" fill="#486284"/>
<path d="M27.2723 10.5536C27.0405 10.386 26.8777 10.1429 26.8131 9.86818C26.206 7.10294 24.6575 4.62104 22.4207 2.82843C20.184 1.03583 17.3915 0.0386515 14.5 0C11.6085 0.0386515 8.81599 1.03583 6.57926 2.82843C4.34252 4.62104 2.79396 7.10294 2.18688 9.86818C2.12231 10.1429 1.95945 10.386 1.72771 10.5536C1.14568 10.9712 0.682613 11.5275 0.382598 12.1697C0.0825828 12.8118 -0.0443986 13.5183 0.0137423 14.222C0.0718831 14.9257 0.313211 15.6031 0.714752 16.1898C1.11629 16.7765 1.66468 17.2529 2.30772 17.5736C2.56184 17.6959 2.76008 17.9067 2.86356 18.1645C3.79186 20.4508 5.39334 22.4159 7.46497 23.8109C9.5366 25.2058 11.9851 25.9677 14.5 26C17.0149 25.9677 19.4634 25.2058 21.535 23.8109C23.6067 22.4159 25.2081 20.4508 26.1364 18.1645C26.2399 17.9067 26.4382 17.6959 26.6923 17.5736C27.3353 17.2529 27.8837 16.7765 28.2852 16.1898C28.6868 15.6031 28.9281 14.9257 28.9863 14.222C29.0444 13.5183 28.9174 12.8118 28.6174 12.1697C28.3174 11.5275 27.8543 10.9712 27.2723 10.5536ZM25.1335 15.6236C24.9222 15.6637 24.7257 15.7582 24.5642 15.8974C24.4028 16.0366 24.2823 16.2154 24.2152 16.4155C23.6047 18.4806 22.33 20.2984 20.58 21.5991C18.8299 22.8998 16.6979 23.6142 14.5 23.6364C12.3104 23.6041 10.1893 22.8851 8.44901 21.5851C6.70871 20.2851 5.44121 18.473 4.83317 16.4155C4.76607 16.2154 4.64557 16.0366 4.48412 15.8974C4.32267 15.7582 4.12613 15.6637 3.91483 15.6236C3.5259 15.5511 3.17197 15.3559 2.90713 15.0681C2.64229 14.7802 2.48111 14.4154 2.44823 14.0295C2.41535 13.6436 2.51257 13.2578 2.72504 12.931C2.93751 12.6043 3.25354 12.3545 3.62482 12.22C3.8257 12.1472 4.00318 12.0235 4.13908 11.8615C4.27497 11.6995 4.36439 11.5051 4.39817 11.2982C4.70981 8.87292 5.90066 6.63747 7.75434 4.99798C9.60802 3.3585 12.0015 2.42377 14.5 2.36364C14.9385 2.37551 15.3578 2.54255 15.68 2.83377C16.0022 3.12499 16.2055 3.52062 16.2521 3.94727C16.2825 4.25726 16.1866 4.56646 15.9853 4.80768C15.7839 5.04889 15.4933 5.20262 15.1767 5.23545C15.0747 5.24776 14.9711 5.23798 14.8734 5.20679C14.7757 5.1756 14.6862 5.12377 14.6113 5.05498C14.5363 4.98619 14.4778 4.90212 14.4397 4.80872C14.4017 4.71533 14.3852 4.6149 14.3912 4.51455C14.4618 4.20111 14.4021 3.87311 14.2253 3.60272C14.0485 3.33233 13.7692 3.14168 13.4487 3.07273C13.1283 3.00377 12.7929 3.06215 12.5164 3.23503C12.24 3.4079 12.045 3.68111 11.9745 3.99455C11.8636 4.53187 11.9064 5.08873 12.0983 5.60378C12.2902 6.11883 12.6237 6.57209 13.0621 6.91364C13.7725 7.44658 14.6699 7.6824 15.5578 7.56943C16.4456 7.45645 17.2515 7.0039 17.7988 6.31091C18.3985 5.60079 18.6853 4.68687 18.5963 3.77C18.6068 3.71977 18.63 3.67291 18.6638 3.63369C18.6976 3.59447 18.7408 3.56413 18.7897 3.54545C18.8356 3.51952 18.8877 3.50587 18.9407 3.50587C18.9937 3.50587 19.0458 3.51952 19.0917 3.54545C20.5741 4.3385 21.8471 5.45845 22.8099 6.81648C23.7726 8.17451 24.3985 9.73326 24.6381 11.3691C24.6719 11.576 24.7613 11.7704 24.8972 11.9324C25.0331 12.0944 25.2105 12.2181 25.4114 12.2909C25.7827 12.4244 26.0992 12.6731 26.3125 12.999C26.5258 13.3249 26.6242 13.7101 26.5927 14.0958C26.5612 14.4816 26.4015 14.8466 26.1381 15.1353C25.8746 15.4239 25.5218 15.6203 25.1335 15.6945V15.6236Z" fill="#486284"/>
</svg>
