<svg width="18" height="18" viewBox="0 0 18 18" fill="none" xmlns="http://www.w3.org/2000/svg">
<g clip-path="url(#clip0_942_8063)">
<path d="M7.17871 6.88379C7.17871 7.40087 7.28056 7.91289 7.47844 8.39061C7.67631 8.86832 7.96635 9.30239 8.33198 9.66802C8.69761 10.0337 9.13168 10.3237 9.6094 10.5216C10.0871 10.7194 10.5991 10.8213 11.1162 10.8213C11.6333 10.8213 12.1453 10.7194 12.623 10.5216C13.1007 10.3237 13.5348 10.0337 13.9004 9.66802C14.2661 9.30239 14.5561 8.86832 14.754 8.39061C14.9519 7.91289 15.0537 7.40087 15.0537 6.88379C15.0537 6.36671 14.9519 5.85469 14.754 5.37697C14.5561 4.89925 14.2661 4.46519 13.9004 4.09956C13.5348 3.73393 13.1007 3.44389 12.623 3.24601C12.1453 3.04814 11.6333 2.94629 11.1162 2.94629C10.5991 2.94629 10.0871 3.04814 9.6094 3.24601C9.13168 3.44389 8.69761 3.73393 8.33198 4.09956C7.96635 4.46519 7.67631 4.89925 7.47844 5.37697C7.28056 5.85469 7.17871 6.36671 7.17871 6.88379Z" stroke="#486284" stroke-width="1.05" stroke-linecap="round" stroke-linejoin="round"/>
<path d="M5.98633 12.21L12.3606 13.9485" stroke="#486284" stroke-width="1.05" stroke-linecap="round" stroke-linejoin="round"/>
<path d="M9.93555 5.04004C10.0995 5.10494 10.2459 5.20732 10.3631 5.339C10.4803 5.47067 10.5651 5.62797 10.6105 5.79829" stroke="#486284" stroke-width="1.05" stroke-linecap="round" stroke-linejoin="round"/>
<path d="M12.1943 7.38477C12.3659 7.42914 12.5245 7.51341 12.6573 7.63071C12.7901 7.74801 12.8934 7.89502 12.9586 8.05977" stroke="#486284" stroke-width="1.05" stroke-linecap="round" stroke-linejoin="round"/>
<path d="M10.4397 15.7558C9.34177 16.7874 7.8854 17.3513 6.37901 17.3278C4.87261 17.3044 3.43448 16.6956 2.36917 15.6303C1.30386 14.565 0.695022 13.1268 0.6716 11.6204C0.648178 10.114 1.21201 8.65768 2.24368 7.55976L6.87568 2.63826C8.00093 1.51302 9.52709 0.880859 11.1184 0.880859C12.7098 0.880859 14.2359 1.51302 15.3612 2.63826C16.4864 3.76351 17.1186 5.28967 17.1186 6.88101C17.1186 8.47235 16.4864 9.99852 15.3612 11.1238L10.4397 15.7558Z" stroke="#486284" stroke-width="1.05" stroke-linecap="round" stroke-linejoin="round"/>
<path d="M4.21289 5.46777L7.31864 17.269" stroke="#486284" stroke-width="1.05" stroke-linecap="round" stroke-linejoin="round"/>
</g>
<defs>
<clipPath id="clip0_942_8063">
<rect width="18" height="18" fill="white"/>
</clipPath>
</defs>
</svg>
