<svg width="26" height="26" viewBox="0 0 26 26" fill="none" xmlns="http://www.w3.org/2000/svg">
<path d="M13 0C20.1799 0 26 5.8201 26 13C26 20.1799 20.1799 26 13 26C5.8201 26 0 20.1799 0 13C0 5.8201 5.8201 0 13 0ZM13 2.6C10.4127 2.6014 7.91878 3.56718 6.00533 5.30873C4.09189 7.05027 2.89631 9.44252 2.65208 12.0183C2.40785 14.5941 3.13251 17.1684 4.68454 19.2385C6.23657 21.3087 8.50451 22.7259 11.0455 23.2136C13.5864 23.7013 16.2179 23.2243 18.426 21.8758C20.6342 20.5273 22.2603 18.4041 22.987 15.921C23.7137 13.4378 23.4887 10.7729 22.3559 8.44672C21.2232 6.12055 19.264 4.30014 16.861 3.341C16.9756 4.13124 16.8449 4.93763 16.4866 5.65121C16.1282 6.36478 15.5594 6.95116 14.8571 7.3311C14.1547 7.71104 13.3527 7.86625 12.5593 7.77574C11.766 7.68523 11.0195 7.35337 10.4208 6.825C10.1722 6.60644 10.0163 6.30125 9.98491 5.97169C9.95356 5.64213 10.0491 5.31302 10.2521 5.0515C10.4551 4.78999 10.7502 4.61576 11.0772 4.56436C11.4043 4.51295 11.7386 4.58826 12.012 4.7749L12.1407 4.875C12.2985 5.01414 12.4877 5.11292 12.692 5.16285C12.8964 5.21278 13.1098 5.21237 13.3139 5.16166C13.5181 5.11095 13.7069 5.01145 13.8642 4.87171C14.0214 4.73196 14.1424 4.55615 14.2167 4.35935C14.291 4.16256 14.3165 3.95066 14.2909 3.74186C14.2653 3.53306 14.1894 3.33358 14.0698 3.16056C13.9501 2.98754 13.7903 2.84614 13.6039 2.74851C13.4176 2.65087 13.2104 2.59991 13 2.6ZM16.432 17.2016C16.6967 17.4223 16.8629 17.7391 16.8941 18.0824C16.9253 18.4256 16.819 18.7672 16.5984 19.032C15.7248 20.0811 14.4612 20.8 13 20.8C11.5388 20.8 10.2752 20.0811 9.4016 19.032C9.19065 18.7661 9.09204 18.4283 9.12682 18.0907C9.1616 17.7532 9.32702 17.4425 9.58773 17.2253C9.84845 17.008 10.1838 16.9013 10.5221 16.928C10.8605 16.9547 11.1749 17.1126 11.3984 17.368C11.8651 17.927 12.4358 18.2 13 18.2C13.5642 18.2 14.1349 17.927 14.6016 17.368C14.8223 17.1033 15.1391 16.9371 15.4824 16.9059C15.8256 16.8747 16.1672 16.981 16.432 17.2016ZM8.45 10.4C8.96717 10.4 9.46316 10.6054 9.82886 10.9711C10.1946 11.3368 10.4 11.8328 10.4 12.35C10.4 12.8672 10.1946 13.3632 9.82886 13.7289C9.46316 14.0946 8.96717 14.3 8.45 14.3C7.93283 14.3 7.43684 14.0946 7.07114 13.7289C6.70545 13.3632 6.5 12.8672 6.5 12.35C6.5 11.8328 6.70545 11.3368 7.07114 10.9711C7.43684 10.6054 7.93283 10.4 8.45 10.4ZM17.55 10.4C18.0672 10.4 18.5632 10.6054 18.9289 10.9711C19.2946 11.3368 19.5 11.8328 19.5 12.35C19.5 12.8672 19.2946 13.3632 18.9289 13.7289C18.5632 14.0946 18.0672 14.3 17.55 14.3C17.0328 14.3 16.5368 14.0946 16.1711 13.7289C15.8054 13.3632 15.6 12.8672 15.6 12.35C15.6 11.8328 15.8054 11.3368 16.1711 10.9711C16.5368 10.6054 17.0328 10.4 17.55 10.4Z" fill="#486284"/>
</svg>
