<svg width="26" height="26" viewBox="0 0 26 26" fill="none" xmlns="http://www.w3.org/2000/svg">
<g clip-path="url(#clip0_1365_16724)">
<path d="M13 24.2113V15.156C13 14.5842 13.2272 14.0358 13.6315 13.6315C14.0358 13.2272 14.5842 13 15.156 13C15.7278 13 16.2762 13.2272 16.6806 13.6315C17.0849 14.0358 17.3121 14.5842 17.3121 15.156V19.8993H20.7617C21.6765 19.8993 22.554 20.2627 23.2009 20.9097C23.8479 21.5567 24.2113 22.4341 24.2113 23.3489V24.2113" stroke="#486284" stroke-width="1.71" stroke-linecap="round" stroke-linejoin="round"/>
<path d="M11.7195 6.26522C9.56954 3.8993 6.68449 2.32758 3.53074 1.80416C3.31615 1.77377 3.09755 1.78938 2.88946 1.84997C2.68136 1.91055 2.48855 2.01471 2.32381 2.15554C2.15611 2.29898 2.02148 2.47704 1.92917 2.67748C1.83687 2.87791 1.78908 3.09598 1.78909 3.31663V15.6151C1.7868 15.9928 1.92449 16.358 2.17559 16.6401C2.42669 16.9222 2.7734 17.1013 3.14879 17.1429C5.61203 17.477 7.92838 18.4517 9.87553 19.9502" stroke="#486284" stroke-width="1.71" stroke-linecap="round" stroke-linejoin="round"/>
<path d="M11.7188 11.0316V6.26562" stroke="#486284" stroke-width="1.71" stroke-linecap="round" stroke-linejoin="round"/>
<path d="M20.2895 17.1429C20.6648 17.1013 21.0115 16.9222 21.2627 16.6401C21.5138 16.358 21.6514 15.9928 21.6492 15.6151V3.31663C21.6492 3.09598 21.6014 2.87791 21.5091 2.67748C21.4169 2.47704 21.2822 2.29898 21.1145 2.15554C20.9498 2.01471 20.757 1.91055 20.5488 1.84997C20.3408 1.78938 20.1222 1.77377 19.9075 1.80416C16.7538 2.32758 13.8688 3.8993 11.7188 6.26522" stroke="#486284" stroke-width="1.71" stroke-linecap="round" stroke-linejoin="round"/>
</g>
<defs>
<clipPath id="clip0_1365_16724">
<rect width="26" height="26" fill="white"/>
</clipPath>
</defs>
</svg>
