<svg width="24" height="24" viewBox="0 0 24 24" fill="none" xmlns="http://www.w3.org/2000/svg">
<path d="M21.9927 12.3055C20.0162 16.5102 18.2732 18.4688 16.4943 18.4688C14.2392 18.4688 12.8349 15.4752 11.348 12.3055C10.1747 9.80422 8.84499 6.96875 7.50632 6.96875C6.03288 6.96875 4.24409 10.3118 3.30882 12.3055C3.2256 12.4744 3.07943 12.6039 2.90172 12.6662C2.72402 12.7284 2.52898 12.7185 2.35854 12.6384C2.1881 12.5584 2.05588 12.4146 1.99031 12.2381C1.92473 12.0616 1.93104 11.8664 2.00788 11.6945C3.97635 7.48984 5.72382 5.53125 7.50632 5.53125C9.76139 5.53125 11.1657 8.52484 12.6526 11.6945C13.8223 14.1958 15.152 17.0312 16.4907 17.0312C17.9641 17.0312 19.7529 13.6882 20.6882 11.6945C20.7714 11.5256 20.9176 11.3961 21.0953 11.3338C21.273 11.2716 21.468 11.2815 21.6385 11.3616C21.8089 11.4416 21.9411 11.5854 22.0067 11.7619C22.0723 11.9384 22.066 12.1336 21.9891 12.3055H21.9927Z" fill="#486284"/>
</svg>
