<svg width="17" height="18" viewBox="0 0 17 18" fill="none" xmlns="http://www.w3.org/2000/svg">
<path d="M9.25375 14.0772L6.75781 14.4541L7.11342 11.8443L13.521 5.06028C13.8072 4.77765 14.1857 4.62379 14.5768 4.63111C14.9679 4.63842 15.341 4.80634 15.6177 5.09949C15.8942 5.39264 16.0527 5.78812 16.0596 6.20264C16.0665 6.61714 15.9213 7.01831 15.6546 7.32162L9.25375 14.0772Z" stroke="#486284" stroke-width="1.5" stroke-linecap="round" stroke-linejoin="round"/>
<path d="M4.18681 1H8.88348C8.88348 1 9.3867 1 9.3867 1.53333V3.31111C9.3867 3.31111 9.3867 3.84444 8.88348 3.84444H4.18681C4.18681 3.84444 3.68359 3.84444 3.68359 3.31111V1.53333C3.68359 1.53333 3.68359 1 4.18681 1Z" stroke="#486284" stroke-width="1.5" stroke-linecap="round" stroke-linejoin="round"/>
<path d="M9.38672 2.42188H11.0641C11.331 2.42188 11.587 2.53426 11.7758 2.73429C11.9645 2.93433 12.0705 3.20565 12.0705 3.48854" stroke="#486284" stroke-width="1.5" stroke-linecap="round" stroke-linejoin="round"/>
<path d="M12.0707 13.7997V15.933C12.0707 16.2159 11.9647 16.4872 11.776 16.6873C11.5872 16.8873 11.3312 16.9997 11.0643 16.9997H2.00643C1.73951 16.9997 1.48352 16.8873 1.29478 16.6873C1.10603 16.4872 1 16.2159 1 15.933V3.48854C1 3.20565 1.10603 2.93433 1.29478 2.73429C1.48352 2.53426 1.73951 2.42188 2.00643 2.42188H3.68381" stroke="#486284" stroke-width="1.5" stroke-linecap="round" stroke-linejoin="round"/>
<path d="M4.01758 6.68848H8.71425" stroke="#486284" stroke-width="1.5" stroke-linecap="round" stroke-linejoin="round"/>
<path d="M4.01758 9.88867H5.69496" stroke="#486284" stroke-width="1.5" stroke-linecap="round" stroke-linejoin="round"/>
</svg>
