<svg width="17" height="18" viewBox="0 0 17 18" fill="none" xmlns="http://www.w3.org/2000/svg">
<path fill-rule="evenodd" clip-rule="evenodd" d="M1.50601 2.22061V9.15048H6.02549V2.22061H1.50601ZM-0.000488281 2.06996C-0.000488281 1.32114 0.606544 0.714111 1.35536 0.714111H6.17614C6.92495 0.714111 7.53198 1.32114 7.53198 2.06996V9.30112C7.53198 10.0499 6.92495 10.657 6.17614 10.657H1.35536C0.606544 10.657 -0.000488281 10.0499 -0.000488281 9.30112V2.06996ZM10.3943 0.714111C9.64551 0.714111 9.03847 1.32114 9.03847 2.06996V4.4924C9.03847 5.24121 9.64551 5.84824 10.3943 5.84824H15.2151C15.9639 5.84824 16.5709 5.24121 16.5709 4.4924V2.06996C16.5709 1.32114 15.9639 0.714111 15.2151 0.714111H10.3943ZM10.545 8.84918V15.779H15.0644V8.84918H10.545ZM9.03847 8.69853C9.03847 7.94972 9.64551 7.34268 10.3943 7.34268H15.2151C15.9639 7.34268 16.5709 7.94972 16.5709 8.69853V15.9297C16.5709 16.6785 15.9639 17.2855 15.2151 17.2855H10.3943C9.64551 17.2855 9.03847 16.6785 9.03847 15.9297V8.69853ZM1.35536 12.1514C0.606544 12.1514 -0.000488281 12.7585 -0.000488281 13.5073V15.9297C-0.000488281 16.6785 0.606544 17.2855 1.35536 17.2855H6.17614C6.92495 17.2855 7.53198 16.6785 7.53198 15.9297V13.5073C7.53198 12.7585 6.92495 12.1514 6.17614 12.1514H1.35536Z" fill="#486284"/>
</svg>
