<svg width="20" height="20" viewBox="0 0 20 20" fill="none" xmlns="http://www.w3.org/2000/svg">
<path d="M10.891 8.67471C11.3972 7.96742 11.6694 7.11947 11.6694 6.24971C11.6694 5.37994 11.3972 4.53199 10.891 3.82471C11.365 3.50181 11.9258 3.33037 12.4993 3.33304C13.2729 3.33304 14.0148 3.64033 14.5617 4.18731C15.1087 4.73429 15.416 5.47616 15.416 6.24971C15.416 7.02325 15.1087 7.76512 14.5617 8.3121C14.0148 8.85908 13.2729 9.16637 12.4993 9.16637C11.9258 9.16904 11.365 8.9976 10.891 8.67471ZM4.58268 6.24971C4.58268 5.67284 4.75374 5.10894 5.07423 4.62929C5.39472 4.14965 5.85024 3.77581 6.38319 3.55506C6.91614 3.3343 7.50258 3.27654 8.06836 3.38908C8.63414 3.50162 9.15384 3.77941 9.56174 4.18731C9.96965 4.59521 10.2474 5.11491 10.36 5.68069C10.4725 6.24647 10.4148 6.83291 10.194 7.36586C9.97324 7.89882 9.59941 8.35434 9.11976 8.67482C8.64012 8.99531 8.07621 9.16637 7.49935 9.16637C6.7258 9.16637 5.98394 8.85908 5.43695 8.3121C4.88997 7.76512 4.58268 7.02325 4.58268 6.24971ZM6.24935 6.24971C6.24935 6.49693 6.32266 6.73861 6.46001 6.94417C6.59736 7.14973 6.79259 7.30994 7.02099 7.40455C7.2494 7.49916 7.50074 7.52392 7.74321 7.47569C7.98569 7.42745 8.20842 7.3084 8.38323 7.13359C8.55805 6.95877 8.6771 6.73604 8.72533 6.49357C8.77356 6.25109 8.74881 5.99976 8.6542 5.77135C8.55959 5.54294 8.39937 5.34772 8.19381 5.21037C7.98825 5.07302 7.74658 4.99971 7.49935 4.99971C7.16783 4.99971 6.84989 5.1314 6.61547 5.36582C6.38104 5.60024 6.24935 5.91818 6.24935 6.24971ZM13.3327 14.1664V15.833H1.66602V14.1664C1.66602 14.1664 1.66602 10.833 7.49935 10.833C13.3327 10.833 13.3327 14.1664 13.3327 14.1664ZM11.666 14.1664C11.5493 13.5164 10.5577 12.4997 7.49935 12.4997C4.44102 12.4997 3.39102 13.5914 3.33268 14.1664M13.291 10.833C13.8018 11.2303 14.2194 11.7346 14.5145 12.3104C14.8096 12.8863 14.9751 13.5198 14.9993 14.1664V15.833H18.3327V14.1664C18.3327 14.1664 18.3327 11.1414 13.2827 10.833H13.291Z" fill="#486284"/>
</svg>
