<svg width="26" height="26" viewBox="0 0 26 26" fill="none" xmlns="http://www.w3.org/2000/svg">
<path d="M23.241 25.1952C23.241 18.7125 21.0332 18.0181 20.6193 13.7422C20.5636 11.9127 20.7421 10.0848 21.1495 8.30273" stroke="#486284" stroke-width="1.5" stroke-linecap="round" stroke-linejoin="round"/>
<path d="M6.22142 0.867188C5.56678 1.16541 4.93526 1.51195 4.33209 1.90394C2.94325 3.18552 4.96042 5.68369 7.04909 6.45394C5.34615 7.36556 3.99656 8.81995 3.21458 10.5862C2.43262 12.3524 2.26311 14.3292 2.73298 16.2028C3.20283 18.0763 4.28512 19.7392 5.80801 20.9275C7.33089 22.1157 9.20708 22.7612 11.1387 22.7613" stroke="#486284" stroke-width="1.5" stroke-linecap="round" stroke-linejoin="round"/>
<path d="M7.85938 22.1152V25.1952" stroke="#486284" stroke-width="1.5" stroke-linecap="round" stroke-linejoin="round"/>
<path d="M23.5305 0.804688C22.5695 5.98086 19.391 16.2107 9.70391 17.5118L9.60316 17.5226C8.86726 17.6041 8.12902 17.391 7.54968 16.9301C6.97034 16.469 6.59696 15.7974 6.51111 15.0621C6.42524 14.3267 6.63387 13.5872 7.09143 13.0051C7.54898 12.4231 8.21828 12.0456 8.95316 11.9554C14.62 11.1971 16.882 3.7687 17.2428 0.935771" stroke="#486284" stroke-width="1.5" stroke-linecap="round" stroke-linejoin="round"/>
</svg>
