<svg width="24" height="24" viewBox="0 0 24 24" fill="none" xmlns="http://www.w3.org/2000/svg">
<g clip-path="url(#clip0_1523_7984)">
<path d="M21.4526 23.2571C21.4526 17.2731 19.4146 16.6321 19.0326 12.6851C18.9812 10.9963 19.1459 9.309 19.522 7.66406" stroke="#486284" stroke-width="1.5" stroke-linecap="round" stroke-linejoin="round"/>
<path d="M5.74165 0.799805C5.13737 1.07509 4.55443 1.39497 3.99765 1.75681C2.71565 2.93981 4.57765 5.24581 6.50565 5.95681C4.93371 6.79831 3.68793 8.14082 2.96611 9.77119C2.2443 11.4016 2.08783 13.2263 2.52155 14.9558C2.95526 16.6852 3.9543 18.2202 5.36004 19.3171C6.76578 20.4139 8.49764 21.0097 10.2806 21.0098" stroke="#486284" stroke-width="1.5" stroke-linecap="round" stroke-linejoin="round"/>
<path d="M7.25781 20.4141V23.2571" stroke="#486284" stroke-width="1.5" stroke-linecap="round" stroke-linejoin="round"/>
<path d="M21.7198 0.743164C20.8328 5.52117 17.8988 14.9641 8.95685 16.1651L8.86385 16.1751C8.18456 16.2503 7.50311 16.0536 6.96833 15.6281C6.43356 15.2025 6.0889 14.5826 6.00965 13.9038C5.93039 13.225 6.12297 12.5424 6.54533 12.0051C6.96769 11.4678 7.5855 11.1194 8.26385 11.0361C13.4948 10.3361 15.5828 3.47917 15.9158 0.864164" stroke="#486284" stroke-width="1.5" stroke-linecap="round" stroke-linejoin="round"/>
</g>
<defs>
<clipPath id="clip0_1523_7984">
<rect width="24" height="24" fill="white"/>
</clipPath>
</defs>
</svg>
