<svg width="29" height="29" viewBox="0 0 29 29" fill="none" xmlns="http://www.w3.org/2000/svg">
<path fill-rule="evenodd" clip-rule="evenodd" d="M2.74554 10.4635C2.74991 14.0947 5.07513 17.5653 7.92391 20.2229C9.32753 21.5322 10.8014 22.5892 12.0561 23.3117C12.6839 23.673 13.2399 23.941 13.6907 24.1148C14.1721 24.3004 14.4313 24.3385 14.5021 24.3385C14.5729 24.3385 14.8321 24.3004 15.3135 24.1148C15.7643 23.941 16.3203 23.673 16.9481 23.3117C18.2028 22.5892 19.6767 21.5322 21.0801 20.2229C23.929 17.5652 26.2544 14.0947 26.2587 10.4634C26.2181 8.12882 24.7965 5.91695 22.8378 5.05441C21.0246 4.256 18.3653 4.47252 15.4825 7.81498C15.2365 8.10013 14.8786 8.26409 14.5021 8.26409C14.1255 8.26409 13.7677 8.10013 13.5217 7.81498C10.6389 4.47252 7.97956 4.256 6.16642 5.05441C4.20762 5.91695 2.786 8.12886 2.74554 10.4635ZM14.5021 5.08154C11.3432 2.01573 7.94271 1.44303 5.12294 2.68469C2.15728 3.99062 0.207433 7.17116 0.156408 10.433L0.15625 10.4532C0.15625 15.1552 3.10732 19.2706 6.15764 22.1161C7.70494 23.5597 9.33788 24.7344 10.7642 25.5557C11.477 25.9661 12.155 26.2977 12.7591 26.5307C13.3326 26.752 13.9491 26.9278 14.5021 26.9278C15.0551 26.9278 15.6716 26.752 16.2451 26.5307C16.8492 26.2977 17.5272 25.9661 18.24 25.5557C19.6663 24.7344 21.2991 23.5597 22.8465 22.1161C25.8968 19.2706 28.848 15.1552 28.848 10.4532L28.8478 10.433C28.7966 7.17116 26.8468 3.9906 23.8811 2.68469C21.0615 1.44303 17.661 2.01573 14.5021 5.08154ZM8.93048 15.5144C8.93048 14.6564 9.62604 13.9608 10.484 13.9608H12.9461V11.4671C12.9461 10.6091 13.6417 9.91352 14.4997 9.91352C15.3577 9.91352 16.0533 10.6091 16.0533 11.4671V13.9608H18.5156C19.3736 13.9608 20.0691 14.6564 20.0691 15.5144C20.0691 16.3724 19.3736 17.068 18.5156 17.068H16.0533V19.5613C16.0533 20.4193 15.3577 21.1148 14.4997 21.1148C13.6417 21.1148 12.9461 20.4193 12.9461 19.5613V17.068H10.484C9.62604 17.068 8.93048 16.3724 8.93048 15.5144Z" fill="#486284"/>
</svg>
