<svg width="26" height="26" viewBox="0 0 26 26" fill="none" xmlns="http://www.w3.org/2000/svg">
<g clip-path="url(#clip0_1365_16581)">
<path d="M13.0013 6.10156L5.10157 13.846C4.78084 14.1664 4.5264 14.5468 4.35279 14.9656C4.17919 15.3844 4.08984 15.8333 4.08984 16.2866C4.08984 16.74 4.17919 17.1889 4.35279 17.6076C4.5264 18.0264 4.78084 18.407 5.10157 18.7273L7.27485 20.9005C7.59522 21.2213 7.97568 21.4758 8.39446 21.6493C8.81323 21.823 9.26213 21.9123 9.71547 21.9123C10.1688 21.9123 10.6177 21.823 11.0365 21.6493C11.4553 21.4758 11.8357 21.2213 12.1561 20.9005L19.9005 13.0008" stroke="#486284" stroke-width="1.71" stroke-linecap="round" stroke-linejoin="round"/>
<path d="M19.0391 1.78906L24.2135 6.96353" stroke="#486284" stroke-width="1.71" stroke-linecap="round" stroke-linejoin="round"/>
<path d="M16.4492 9.55044L21.6237 4.37598" stroke="#486284" stroke-width="1.71" stroke-linecap="round" stroke-linejoin="round"/>
<path d="M6.18736 19.8135L1.78906 24.2118" stroke="#486284" stroke-width="1.71" stroke-linecap="round" stroke-linejoin="round"/>
<path d="M10.4141 3.51367L22.4878 15.5874" stroke="#486284" stroke-width="1.71" stroke-linecap="round" stroke-linejoin="round"/>
</g>
<defs>
<clipPath id="clip0_1365_16581">
<rect width="26" height="26" fill="white"/>
</clipPath>
</defs>
</svg>
