<svg width="26" height="26" viewBox="0 0 26 26" fill="none" xmlns="http://www.w3.org/2000/svg">
<path fill-rule="evenodd" clip-rule="evenodd" d="M10.4 1.3C10.4 0.955218 10.537 0.624558 10.7808 0.380761C11.0246 0.136964 11.3552 0 11.7 0H14.3C14.6448 0 14.9754 0.136964 15.2192 0.380761C15.463 0.624558 15.6 0.955218 15.6 1.3C15.6 1.64478 15.463 1.97544 15.2192 2.21924C14.9754 2.46304 14.6448 2.6 14.3 2.6V5.3079C15.4602 5.50267 16.5609 5.95877 17.5188 6.6417L19.435 4.7268C19.1982 4.48162 19.0672 4.15323 19.0701 3.81238C19.0731 3.47152 19.2098 3.14547 19.4508 2.90444C19.6919 2.66341 20.0179 2.52669 20.3588 2.52372C20.6996 2.52076 21.028 2.65179 21.2732 2.8886L23.1114 4.7268C23.3482 4.97198 23.4792 5.30037 23.4763 5.64122C23.4733 5.98208 23.3366 6.30813 23.0956 6.54916C22.8545 6.79019 22.5285 6.92691 22.1876 6.92988C21.8468 6.93284 21.5184 6.80181 21.2732 6.565L19.3583 8.4799C20.0414 9.43817 20.4976 10.5393 20.6921 11.7H23.4C23.4 11.3552 23.537 11.0246 23.7808 10.7808C24.0246 10.537 24.3552 10.4 24.7 10.4C25.0448 10.4 25.3754 10.537 25.6192 10.7808C25.863 11.0246 26 11.3552 26 11.7V14.3C26 14.6448 25.863 14.9754 25.6192 15.2192C25.3754 15.463 25.0448 15.6 24.7 15.6C24.3552 15.6 24.0246 15.463 23.7808 15.2192C23.537 14.9754 23.4 14.6448 23.4 14.3H20.6921C20.4974 15.4602 20.0413 16.5609 19.3583 17.5188L21.2732 19.435C21.5184 19.1982 21.8468 19.0672 22.1876 19.0701C22.5285 19.0731 22.8545 19.2098 23.0956 19.4508C23.3366 19.6919 23.4733 20.0179 23.4763 20.3588C23.4792 20.6996 23.3482 21.028 23.1114 21.2732L21.2732 23.1114C21.028 23.3482 20.6996 23.4792 20.3588 23.4763C20.0179 23.4733 19.6919 23.3366 19.4508 23.0956C19.2098 22.8545 19.0731 22.5285 19.0701 22.1876C19.0672 21.8468 19.1982 21.5184 19.435 21.2732L17.5201 19.3583C16.5618 20.0414 15.4607 20.4976 14.3 20.6921V23.4C14.6448 23.4 14.9754 23.537 15.2192 23.7808C15.463 24.0246 15.6 24.3552 15.6 24.7C15.6 25.0448 15.463 25.3754 15.2192 25.6192C14.9754 25.863 14.6448 26 14.3 26H11.7C11.3552 26 11.0246 25.863 10.7808 25.6192C10.537 25.3754 10.4 25.0448 10.4 24.7C10.4 24.3552 10.537 24.0246 10.7808 23.7808C11.0246 23.537 11.3552 23.4 11.7 23.4V20.6921C10.5393 20.4976 9.43817 20.0414 8.4799 19.3583L6.565 21.2732C6.68916 21.3931 6.7882 21.5366 6.85633 21.6952C6.92446 21.8538 6.96033 22.0244 6.96183 22.197C6.96333 22.3696 6.93043 22.5408 6.86507 22.7005C6.7997 22.8603 6.70317 23.0055 6.58111 23.1275C6.45905 23.2496 6.31391 23.3461 6.15414 23.4115C5.99437 23.4768 5.82319 23.5097 5.65058 23.5082C5.47796 23.5067 5.30738 23.4709 5.14877 23.4027C4.99017 23.3346 4.84672 23.2356 4.7268 23.1114L2.8886 21.2732C2.65179 21.028 2.52076 20.6996 2.52372 20.3588C2.52669 20.0179 2.66341 19.6919 2.90444 19.4508C3.14547 19.2098 3.47152 19.0731 3.81238 19.0701C4.15323 19.0672 4.48162 19.1982 4.7268 19.435L6.6417 17.5201C5.95859 16.5618 5.50248 15.4606 5.3079 14.3H2.6C2.6 14.6448 2.46304 14.9754 2.21924 15.2192C1.97544 15.463 1.64478 15.6 1.3 15.6C0.955218 15.6 0.624558 15.463 0.380761 15.2192C0.136964 14.9754 0 14.6448 0 14.3V11.7C0 11.3552 0.136964 11.0246 0.380761 10.7808C0.624558 10.537 0.955218 10.4 1.3 10.4C1.64478 10.4 1.97544 10.537 2.21924 10.7808C2.46304 11.0246 2.6 11.3552 2.6 11.7H5.3079C5.50252 10.5394 5.95863 9.43822 6.6417 8.4799L4.7268 6.565C4.60688 6.68916 4.46343 6.7882 4.30483 6.85633C4.14622 6.92446 3.97563 6.96033 3.80302 6.96183C3.63041 6.96333 3.45922 6.93043 3.29946 6.86507C3.13969 6.7997 2.99455 6.70317 2.87249 6.58111C2.75043 6.45905 2.6539 6.31391 2.58853 6.15414C2.52317 5.99437 2.49027 5.82319 2.49177 5.65058C2.49327 5.47796 2.52914 5.30738 2.59727 5.14877C2.6654 4.99017 2.76444 4.84672 2.8886 4.7268L4.7268 2.8886C4.84672 2.76444 4.99017 2.6654 5.14877 2.59727C5.30738 2.52914 5.47796 2.49327 5.65058 2.49177C5.82319 2.49027 5.99437 2.52317 6.15414 2.58853C6.31391 2.6539 6.45905 2.75043 6.58111 2.87249C6.70317 2.99455 6.7997 3.13969 6.86507 3.29946C6.93043 3.45922 6.96333 3.63041 6.96183 3.80302C6.96033 3.97563 6.92446 4.14622 6.85633 4.30483C6.7882 4.46343 6.68916 4.60688 6.565 4.7268L8.4799 6.6417C9.43822 5.95863 10.5394 5.50252 11.7 5.3079V2.6C11.3552 2.6 11.0246 2.46304 10.7808 2.21924C10.537 1.97544 10.4 1.64478 10.4 1.3ZM7.8 13C7.8 14.3791 8.34785 15.7018 9.32304 16.677C10.2982 17.6521 11.6209 18.2 13 18.2C14.3791 18.2 15.7018 17.6521 16.677 16.677C17.6521 15.7018 18.2 14.3791 18.2 13C18.2 11.6209 17.6521 10.2982 16.677 9.32304C15.7018 8.34785 14.3791 7.8 13 7.8C11.6209 7.8 10.2982 8.34785 9.32304 9.32304C8.34785 10.2982 7.8 11.6209 7.8 13Z" fill="#486284"/>
</svg>
