<svg width="17" height="16" viewBox="0 0 17 16" fill="none" xmlns="http://www.w3.org/2000/svg">
<path d="M10 15.3125H7C4.17175 15.3125 2.75725 15.3125 1.879 14.4335C1.00075 13.5545 1 12.1407 1 9.3125V7.8125C1 4.98425 1 3.56975 1.879 2.6915C2.758 1.81325 4.17175 1.8125 7 1.8125H10C12.8282 1.8125 14.2427 1.8125 15.121 2.6915C15.9992 3.5705 16 4.98425 16 7.8125V9.3125C16 12.1407 16 13.5552 15.121 14.4335C14.6312 14.924 13.975 15.1408 13 15.236M4.75 1.8125V0.6875M12.25 1.8125V0.6875M15.625 5.5625H7.5625M1 5.5625H3.90625" stroke="#486284" stroke-width="1.25" stroke-linecap="round"/>
<path d="M13 11.5625C13 11.7614 12.921 11.9522 12.7803 12.0928C12.6397 12.2335 12.4489 12.3125 12.25 12.3125C12.0511 12.3125 11.8603 12.2335 11.7197 12.0928C11.579 11.9522 11.5 11.7614 11.5 11.5625C11.5 11.3636 11.579 11.1728 11.7197 11.0322C11.8603 10.8915 12.0511 10.8125 12.25 10.8125C12.4489 10.8125 12.6397 10.8915 12.7803 11.0322C12.921 11.1728 13 11.3636 13 11.5625ZM13 8.5625C13 8.76141 12.921 8.95218 12.7803 9.09283C12.6397 9.23348 12.4489 9.3125 12.25 9.3125C12.0511 9.3125 11.8603 9.23348 11.7197 9.09283C11.579 8.95218 11.5 8.76141 11.5 8.5625C11.5 8.36359 11.579 8.17282 11.7197 8.03217C11.8603 7.89152 12.0511 7.8125 12.25 7.8125C12.4489 7.8125 12.6397 7.89152 12.7803 8.03217C12.921 8.17282 13 8.36359 13 8.5625ZM9.25 11.5625C9.25 11.7614 9.17098 11.9522 9.03033 12.0928C8.88968 12.2335 8.69891 12.3125 8.5 12.3125C8.30109 12.3125 8.11032 12.2335 7.96967 12.0928C7.82902 11.9522 7.75 11.7614 7.75 11.5625C7.75 11.3636 7.82902 11.1728 7.96967 11.0322C8.11032 10.8915 8.30109 10.8125 8.5 10.8125C8.69891 10.8125 8.88968 10.8915 9.03033 11.0322C9.17098 11.1728 9.25 11.3636 9.25 11.5625ZM9.25 8.5625C9.25 8.76141 9.17098 8.95218 9.03033 9.09283C8.88968 9.23348 8.69891 9.3125 8.5 9.3125C8.30109 9.3125 8.11032 9.23348 7.96967 9.09283C7.82902 8.95218 7.75 8.76141 7.75 8.5625C7.75 8.36359 7.82902 8.17282 7.96967 8.03217C8.11032 7.89152 8.30109 7.8125 8.5 7.8125C8.69891 7.8125 8.88968 7.89152 9.03033 8.03217C9.17098 8.17282 9.25 8.36359 9.25 8.5625ZM5.5 11.5625C5.5 11.7614 5.42098 11.9522 5.28033 12.0928C5.13968 12.2335 4.94891 12.3125 4.75 12.3125C4.55109 12.3125 4.36032 12.2335 4.21967 12.0928C4.07902 11.9522 4 11.7614 4 11.5625C4 11.3636 4.07902 11.1728 4.21967 11.0322C4.36032 10.8915 4.55109 10.8125 4.75 10.8125C4.94891 10.8125 5.13968 10.8915 5.28033 11.0322C5.42098 11.1728 5.5 11.3636 5.5 11.5625ZM5.5 8.5625C5.5 8.76141 5.42098 8.95218 5.28033 9.09283C5.13968 9.23348 4.94891 9.3125 4.75 9.3125C4.55109 9.3125 4.36032 9.23348 4.21967 9.09283C4.07902 8.95218 4 8.76141 4 8.5625C4 8.36359 4.07902 8.17282 4.21967 8.03217C4.36032 7.89152 4.55109 7.8125 4.75 7.8125C4.94891 7.8125 5.13968 7.89152 5.28033 8.03217C5.42098 8.17282 5.5 8.36359 5.5 8.5625Z" fill="#486284"/>
</svg>
