<svg width="26" height="26" viewBox="0 0 26 26" fill="none" xmlns="http://www.w3.org/2000/svg">
<g clip-path="url(#clip0_1365_16568)">
<path d="M18.6875 13.8115H23.5625C23.9935 13.8115 24.4068 13.6403 24.7116 13.3356C25.0163 13.0308 25.1875 12.6174 25.1875 12.1865V2.43652C25.1875 2.00555 25.0163 1.59222 24.7116 1.28747C24.4068 0.982729 23.9935 0.811523 23.5625 0.811523H20.3125C19.8816 0.811523 19.4682 0.982729 19.1634 1.28747C18.8587 1.59222 18.6875 2.00555 18.6875 2.43652V13.8115Z" stroke="#486284" stroke-width="1.5" stroke-linecap="round" stroke-linejoin="round"/>
<path d="M5.6875 10.5615C5.25653 10.5615 4.84319 10.7327 4.53845 11.0375C4.23371 11.3423 4.0625 11.7556 4.0625 12.1865C4.0625 12.6175 4.23371 13.0309 4.53845 13.3356C4.84319 13.6403 5.25653 13.8115 5.6875 13.8115H18.6875V10.5615H5.6875Z" stroke="#486284" stroke-width="1.5" stroke-linecap="round" stroke-linejoin="round"/>
<path d="M21.3417 16.8995C21.9878 16.683 22.5494 16.269 22.9474 15.7159C23.3453 15.1629 23.5594 14.4987 23.5593 13.8174H5.6875C5.6872 15.465 6.14234 17.0806 7.00265 18.4858C7.86295 19.891 9.09493 21.031 10.5625 21.7799L9.75 25.188H20.3125V18.4497C20.3031 18.1167 20.397 17.7889 20.5813 17.5113C20.7654 17.2338 21.0311 17.02 21.3417 16.8995Z" stroke="#486284" stroke-width="1.5" stroke-linecap="round" stroke-linejoin="round"/>
<path d="M4.54297 8.0561C4.60058 7.14201 4.98926 6.28023 5.6363 5.632C6.28334 4.98375 7.1444 4.59348 8.05839 4.53418" stroke="#486284" stroke-width="1.5" stroke-linecap="round" stroke-linejoin="round"/>
<path d="M0.8125 7.46731C1.00169 5.76768 1.76353 4.18299 2.97276 2.97374C4.18201 1.76451 5.7667 1.00267 7.46633 0.813477" stroke="#486284" stroke-width="1.5" stroke-linecap="round" stroke-linejoin="round"/>
</g>
<defs>
<clipPath id="clip0_1365_16568">
<rect width="26" height="26" fill="white"/>
</clipPath>
</defs>
</svg>
