<svg width="28" height="28" viewBox="0 0 28 28" fill="none" xmlns="http://www.w3.org/2000/svg">
<path d="M18.067 17.5222L10.4774 9.93262C10.4774 9.93262 7.93953 11.5438 5.99822 13.4851C5.02724 14.4561 4.13885 15.5763 3.49334 16.4536C2.78173 17.4207 2.44787 18.6024 2.45191 19.803L2.45468 20.6256C2.45692 21.2873 2.19511 21.9223 1.72735 22.3901C0.757551 23.3598 0.757551 24.9321 1.72735 25.902L2.09761 26.2722C3.06741 27.2421 4.63976 27.2421 5.60958 26.2722C6.07734 25.8046 6.71239 25.5426 7.37391 25.5449L8.22221 25.5478C9.40678 25.5518 10.5724 25.2276 11.536 24.5385C12.4512 23.8842 13.6213 22.9828 14.5585 22.0453C16.3804 20.2236 18.067 17.5222 18.067 17.5222Z" stroke="#486284" stroke-width="1.71" stroke-linecap="round" stroke-linejoin="round"/>
<path d="M24.9906 12.7199C27.6717 10.0388 27.6717 5.69191 24.9906 3.01081C22.3094 0.32973 17.9626 0.32973 15.2815 3.01081L14.2849 4.00741C13.8053 4.48705 13.0276 4.48705 12.548 4.00741C11.5886 3.04812 10.0333 3.04812 9.07404 4.00741L8.81227 4.26918C7.70841 5.37304 7.70841 7.16275 8.81227 8.26663L19.7348 19.1891C20.8386 20.293 22.6284 20.293 23.7323 19.1891L23.994 18.9274C24.9533 17.9681 24.9533 16.4127 23.994 15.4534C23.5143 14.9738 23.5143 14.1961 23.994 13.7165L24.9906 12.7199Z" stroke="#486284" stroke-width="1.71" stroke-linecap="round" stroke-linejoin="round"/>
</svg>
