<svg width="20" height="20" viewBox="0 0 20 20" fill="none" xmlns="http://www.w3.org/2000/svg">
<path d="M11.7368 17.1053H2.78947C2.31488 17.1053 1.85972 16.9167 1.52412 16.5811C1.18853 16.2455 1 15.7904 1 15.3158V2.78947C1 2.31488 1.18853 1.85972 1.52412 1.52412C1.85972 1.18853 2.31488 1 2.78947 1H17.1053C17.5799 1 18.035 1.18853 18.3706 1.52412C18.7062 1.85972 18.8947 2.31488 18.8947 2.78947V9.94737" stroke="#486284" stroke-width="1.25" stroke-linecap="round"/>
<path d="M1 4.57943H18.8947M3.68421 2.7989L3.69316 2.78906M6.36842 2.7989L6.37737 2.78906M9.05263 2.7989L9.06158 2.78906M18.1494 14.8689H18.3579C18.5003 14.8689 18.6368 14.9255 18.7375 15.0261C18.8382 15.1268 18.8947 15.2634 18.8947 15.4057V17.4636C18.8947 17.606 18.8382 17.7426 18.7375 17.8432C18.6368 17.9439 18.5003 18.0005 18.3579 18.0005H14.9579C14.8155 18.0005 14.679 17.9439 14.5783 17.8432C14.4776 17.7426 14.4211 17.606 14.4211 17.4636V15.4057C14.4211 15.2634 14.4776 15.1268 14.5783 15.0261C14.679 14.9255 14.8155 14.8689 14.9579 14.8689H15.1664M18.1494 14.8689V13.3031C18.1494 12.7815 17.8506 11.7373 16.6579 11.7373C15.4652 11.7373 15.1664 12.7815 15.1664 13.3031V14.8689M18.1494 14.8689H15.1664" stroke="#486284" stroke-width="1.25" stroke-linecap="round" stroke-linejoin="round"/>
</svg>
