<svg width="21" height="20" viewBox="0 0 21 20" fill="none" xmlns="http://www.w3.org/2000/svg">
<g clip-path="url(#clip0_969_2396)">
<path d="M3.05711 19.4V14.1995C3.05711 13.3157 2.34078 12.5993 1.45703 12.5994V6.19887C1.45703 6.19887 2.65711 5.39879 4.65728 5.39879C5.26486 5.39779 5.87011 5.4747 6.4582 5.62762M8.65836 19.4V14.9995H5.85737V14.7995L5.91495 14.6795C7.19395 11.9933 7.85762 9.05562 7.85753 6.08045V5.8172C8.62628 5.5357 9.43911 5.39404 10.2577 5.39879C11.2882 5.39879 12.1067 5.61162 12.6579 5.8172V6.08045C12.6579 6.7232 12.6889 7.36562 12.7507 8.00537M16.8583 19.4V16.6589C16.8583 15.742 17.4855 14.9995 18.2584 14.9995V9.8287C18.2584 9.8287 17.2079 8.99904 15.4581 8.99904C13.7076 8.99904 12.6579 9.8287 12.6579 9.8287V14.9995C13.4316 14.9995 14.058 15.7428 14.058 16.6589V19.4M4.53728 3.79862C4.53728 3.79862 3.25711 2.99854 3.25711 1.99845C3.25711 0.921954 4.42261 0.249037 5.35495 0.78737C5.78762 1.0372 6.0542 1.49887 6.0542 1.99845C6.0542 2.99854 4.77728 3.79862 4.77728 3.79862H4.53728ZM10.1377 3.79862C10.1377 3.79862 8.85762 2.99854 8.85762 1.99845C8.85762 0.921954 10.023 0.249037 10.9554 0.78737C11.3881 1.0372 11.6546 1.49887 11.6546 1.99845C11.6546 2.99854 10.3777 3.79862 10.3777 3.79862H10.1377ZM15.3565 7.39895C15.3565 7.39895 14.258 6.69887 14.258 5.82362C14.258 5.14754 14.7957 4.5987 15.4598 4.5987C16.1239 4.5987 16.6583 5.14754 16.6583 5.82362C16.6583 6.69887 15.5622 7.39895 15.5622 7.39895H15.3565Z" stroke="#486284" stroke-width="1.25"/>
</g>
<defs>
<clipPath id="clip0_969_2396">
<rect width="20" height="20" fill="white" transform="translate(0.857422)"/>
</clipPath>
</defs>
</svg>
