<svg width="26" height="26" viewBox="0 0 26 26" fill="none" xmlns="http://www.w3.org/2000/svg">
<path d="M13 26C10.794 26 8.66669 25.35 6.61818 24.05C4.56969 22.75 2.95455 21.2629 1.77273 19.5886V23.6364H0V16.5455H7.09091V18.3182H3.04318C4.04773 19.8349 5.48068 21.1989 7.34205 22.4102C9.20341 23.6216 11.0894 24.2273 13 24.2273C14.5364 24.2273 15.989 23.9318 17.358 23.3409C18.7269 22.75 19.9185 21.9474 20.933 20.933C21.9474 19.9185 22.75 18.7269 23.3409 17.358C23.9318 15.989 24.2273 14.5364 24.2273 13H26C26 14.7924 25.6602 16.4765 24.9807 18.0523C24.3011 19.6281 23.3705 21.0068 22.1886 22.1886C21.0068 23.3705 19.6281 24.3011 18.0523 24.9807C16.4765 25.6602 14.7924 26 13 26ZM12.1432 21.4795V19.8841C11.2568 19.6477 10.5133 19.2685 9.9125 18.7466C9.31172 18.2246 8.80455 17.5106 8.39091 16.6045L9.89773 16.1023C10.1341 16.8508 10.5526 17.4417 11.1534 17.875C11.7542 18.3083 12.4386 18.525 13.2068 18.525C13.9947 18.525 14.6496 18.333 15.1716 17.9489C15.6935 17.5648 15.9545 17.0576 15.9545 16.4273C15.9545 15.7773 15.7083 15.2307 15.2159 14.7875C14.7235 14.3443 13.8174 13.847 12.4977 13.2955C11.3159 12.8031 10.4295 12.2712 9.83864 11.7C9.24773 11.1288 8.95227 10.3606 8.95227 9.39546C8.95227 8.52877 9.24773 7.79013 9.83864 7.17955C10.4295 6.56896 11.2174 6.19468 12.2023 6.05682V4.55H13.8273V6.05682C14.5758 6.13559 15.2258 6.37195 15.7773 6.76591C16.3288 7.15987 16.772 7.7015 17.1068 8.39091L15.6886 9.07045C15.3932 8.51896 15.0288 8.10532 14.5955 7.82955C14.1621 7.55377 13.65 7.41591 13.0591 7.41591C12.2909 7.41591 11.6852 7.59318 11.242 7.94773C10.7989 8.30227 10.5773 8.78487 10.5773 9.39546C10.5773 10.0258 10.8333 10.5281 11.3455 10.9023C11.8576 11.2765 12.6849 11.7 13.8273 12.1727C15.1864 12.744 16.1515 13.3447 16.7227 13.975C17.294 14.6053 17.5795 15.4227 17.5795 16.4273C17.5795 16.9197 17.4909 17.3727 17.3136 17.7864C17.1364 18.2 16.8852 18.5545 16.5602 18.85C16.2352 19.1455 15.8364 19.3867 15.3636 19.5739C14.8909 19.761 14.3591 19.8841 13.7682 19.9432V21.4795H12.1432ZM0 13C0 11.2076 0.339773 9.5235 1.01932 7.94773C1.69886 6.37195 2.62955 4.99318 3.81136 3.81136C4.99318 2.62955 6.37195 1.69886 7.94773 1.01932C9.5235 0.339773 11.2076 0 13 0C15.206 0 17.3333 0.65 19.3818 1.95C21.4303 3.25 23.0455 4.73714 24.2273 6.41136V2.36364H26V9.45455H18.9091V7.68182H22.9568C21.9523 6.16513 20.5242 4.80114 18.6727 3.58977C16.8212 2.37841 14.9303 1.77273 13 1.77273C11.4636 1.77273 10.011 2.06818 8.64205 2.65909C7.27309 3.25 6.08146 4.05265 5.06705 5.06705C4.05265 6.08146 3.25 7.27309 2.65909 8.64205C2.06818 10.011 1.77273 11.4636 1.77273 13H0Z" fill="#486284"/>
</svg>
