<svg width="17" height="26" viewBox="0 0 17 26" fill="none" xmlns="http://www.w3.org/2000/svg">
<path fill-rule="evenodd" clip-rule="evenodd" d="M0.804524 10.993C0.22971 10.531 0.257494 9.83334 0.557109 9.23411C1.46827 7.41178 3.06603 6.02606 4.9989 5.38177L5.10969 5.34484L4.80849 4.44125C4.27749 2.84824 4.99866 1.10718 6.50055 0.356229C7.45044 -0.118743 8.56857 -0.118743 9.5186 0.356229C11.0204 1.10718 11.7417 2.84824 11.2107 4.44125L10.9094 5.34484L11.0202 5.38177C12.9531 6.02606 14.5509 7.41178 15.462 9.23411C15.7616 9.83334 15.7894 10.531 15.2146 10.993C15.9083 11.9551 16.1959 13.2167 15.9087 14.4284C15.636 15.5792 15.4356 16.7547 15.4356 17.6777C15.4356 18.6009 15.636 19.7763 15.9087 20.9271C16.486 23.3626 14.7409 26 12.0442 26H3.97493C1.2783 26 -0.466903 23.3626 0.11042 20.9271C0.383212 19.7763 0.583536 18.6009 0.583536 17.6777C0.583536 16.7547 0.383212 15.5792 0.11042 14.4284C-0.176801 13.2167 0.110842 11.9551 0.804524 10.993ZM7.6457 2.64659C7.87475 2.53207 8.14439 2.53207 8.37345 2.64659C8.73553 2.82764 8.9094 3.24742 8.78137 3.6315L8.27768 5.1424C7.94235 6.14864 8.48612 7.23627 9.49235 7.5717L10.2105 7.81106C11.1181 8.11361 11.9149 8.66137 12.519 9.38335C12.3643 9.36497 12.2059 9.35548 12.0442 9.35548H3.97493C3.81317 9.35548 3.65483 9.36497 3.5002 9.38335C4.10427 8.66137 4.90105 8.11361 5.80865 7.81106L6.5268 7.5717C7.53303 7.23627 8.07679 6.14864 7.74147 5.1424L7.23778 3.6315C7.10974 3.24742 7.28361 2.82764 7.6457 2.64659ZM2.60209 13.8378C2.36075 12.8197 3.12219 11.9161 3.97493 11.9161H12.0442C12.8969 11.9161 13.6584 12.8197 13.417 13.8378C13.1298 15.0495 12.8749 16.4546 12.8749 17.6777C12.8749 18.9008 13.1298 20.306 13.417 21.5177C13.6584 22.5358 12.8969 23.4393 12.0442 23.4393H3.97493C3.12219 23.4393 2.36075 22.5358 2.60209 21.5177C2.65196 21.3074 2.70085 21.0911 2.74761 20.871C2.79377 20.876 2.84067 20.8786 2.88817 20.8786H6.72922C7.43636 20.8786 8.00957 20.3054 8.00957 19.5982C8.00957 18.8912 7.43636 18.3179 6.72922 18.3179H3.12307C3.13681 18.1005 3.14424 17.8865 3.14424 17.6777C3.14424 17.469 3.13681 17.2551 3.12307 17.0375H6.72922C7.43636 17.0375 8.00957 16.4643 8.00957 15.7572C8.00957 15.0502 7.43636 14.4768 6.72922 14.4768H2.74599C2.69973 14.2594 2.65138 14.0457 2.60209 13.8378Z" fill="#486284"/>
</svg>
