<svg width="32" height="18" viewBox="0 0 32 18" fill="none" xmlns="http://www.w3.org/2000/svg">
<path d="M3 5C3 6.06087 3.42143 7.07828 4.17157 7.82843C4.92172 8.57857 5.93913 9 7 9C8.06087 9 9.07828 8.57857 9.82843 7.82843C10.5786 7.07828 11 6.06087 11 5C11 3.93913 10.5786 2.92172 9.82843 2.17157C9.07828 1.42143 8.06087 1 7 1C5.93913 1 4.92172 1.42143 4.17157 2.17157C3.42143 2.92172 3 3.93913 3 5Z" stroke="#486284" stroke-width="1.71" stroke-linecap="round" stroke-linejoin="round"/>
<path d="M13 17C13 15.4087 12.3679 13.8826 11.2426 12.7574C10.1174 11.6321 8.5913 11 7 11C5.4087 11 3.88258 11.6321 2.75736 12.7574C1.63214 13.8826 1 15.4087 1 17" stroke="#486284" stroke-width="1.71" stroke-linecap="round" stroke-linejoin="round"/>
<path d="M30 17C30 15.4087 29.3679 13.8826 28.2426 12.7574C27.1174 11.6321 25.5913 11 24 11C22.4087 11 20.8826 11.6321 19.7574 12.7574C18.6321 13.8826 18 15.4087 18 17" stroke="#486284" stroke-width="1.71" stroke-linecap="round" stroke-linejoin="round"/>
<path d="M20 5C20 6.06087 20.4214 7.07828 21.1716 7.82843C21.9217 8.57857 22.9391 9 24 9C25.0609 9 26.0783 8.57857 26.8284 7.82843C27.5786 7.07828 28 6.06087 28 5C28 3.93913 27.5786 2.92172 26.8284 2.17157C26.0783 1.42143 25.0609 1 24 1C22.9391 1 21.9217 1.42143 21.1716 2.17157C20.4214 2.92172 20 3.93913 20 5Z" stroke="#486284" stroke-width="1.71" stroke-linecap="round" stroke-linejoin="round"/>
<path d="M20 5C20 5 20 10 17 10" stroke="#486284" stroke-width="1.71" stroke-linecap="round" stroke-linejoin="round"/>
<path d="M28 5C28 5 28 10 31 10" stroke="#486284" stroke-width="1.71" stroke-linecap="round" stroke-linejoin="round"/>
</svg>
