<svg width="16" height="18" viewBox="0 0 16 18" fill="none" xmlns="http://www.w3.org/2000/svg">
<path d="M1 17H15" stroke="#486284" stroke-width="1.5" stroke-linecap="round" stroke-linejoin="round"/>
<path d="M1 8.19961C1 7.44543 1 7.0683 1.2278 6.83392C1.45559 6.59961 1.82225 6.59961 2.55555 6.59961C3.28885 6.59961 3.6555 6.59961 3.8833 6.83392C4.11109 7.0683 4.1111 7.44543 4.1111 8.19961V12.9997C4.1111 13.7539 4.11109 14.131 3.8833 14.3654C3.6555 14.5997 3.28885 14.5997 2.55555 14.5997C1.82225 14.5997 1.45559 14.5997 1.2278 14.3654C1 14.131 1 13.7539 1 12.9997V8.19961Z" stroke="#486284" stroke-width="1.5"/>
<path d="M6.44531 5.00039C6.44531 4.24613 6.44531 3.869 6.67311 3.6347C6.90091 3.40039 7.26756 3.40039 8.00086 3.40039C8.73416 3.40039 9.10081 3.40039 9.32861 3.6347C9.55641 3.869 9.55641 4.24613 9.55641 5.00039V13.0005C9.55641 13.7546 9.55641 14.1318 9.32861 14.3661C9.10081 14.6005 8.73416 14.6005 8.00086 14.6005C7.26756 14.6005 6.90091 14.6005 6.67311 14.3662C6.44531 14.1318 6.44531 13.7546 6.44531 13.0005V5.00039Z" stroke="#486284" stroke-width="1.5"/>
<path d="M11.8887 2.6C11.8887 1.84574 11.8887 1.46861 12.1165 1.23431C12.3443 1 12.7109 1 13.4442 1C14.1775 1 14.5441 1 14.772 1.23431C14.9998 1.46861 14.9998 1.84574 14.9998 2.6V13C14.9998 13.7542 14.9998 14.1313 14.772 14.3657C14.5441 14.6 14.1775 14.6 13.4442 14.6C12.7109 14.6 12.3443 14.6 12.1165 14.3657C11.8887 14.1313 11.8887 13.7542 11.8887 13V2.6Z" stroke="#486284" stroke-width="1.5"/>
</svg>
