<svg width="18" height="16" viewBox="0 0 18 16" fill="none" xmlns="http://www.w3.org/2000/svg">
<path d="M16.6154 2.66667H13.1538V2C13.1538 0.895436 12.224 0 11.0769 0H6.92308C5.77602 0 4.84615 0.895436 4.84615 2V2.66667H1.38462C0.619912 2.66667 0 3.26362 0 4V14.6667C0 15.4031 0.619891 16 1.38462 16H16.6154C17.3801 16 18 15.403 18 14.6667V4C18 3.26364 17.3801 2.6667 16.6154 2.66667ZM6.23077 2C6.23077 1.6318 6.54071 1.33332 6.92308 1.33334H11.0769C11.4593 1.33334 11.7692 1.63181 11.7692 2V2.66666H6.23077V2ZM16.6154 14.6667H1.38462V4H16.6154V14.6667ZM11.7692 9.33333C11.7692 9.70151 11.4593 9.99998 11.0769 10H9.69231V11.3333C9.69231 11.8465 9.11538 12.1673 8.65385 11.9107C8.43965 11.7916 8.30769 11.5715 8.30769 11.3333V10H6.92308C6.39014 9.99997 6.05705 9.4444 6.32353 8.99998C6.44721 8.79372 6.67575 8.66666 6.92308 8.66666H8.30769V7.33334C8.30769 6.82013 8.88462 6.49938 9.34615 6.75598C9.56036 6.87507 9.69231 7.09515 9.69231 7.33334V8.66666H11.0769C11.4593 8.66669 11.7692 8.96515 11.7692 9.33333Z" fill="#486284"/>
</svg>
