<svg width="23" height="22" viewBox="0 0 23 22" fill="none" xmlns="http://www.w3.org/2000/svg">
<g clip-path="url(#clip0_969_2402)">
<path d="M18.9349 1.83334H3.35156C2.98689 1.83334 2.63715 1.97821 2.37929 2.23607C2.12143 2.49393 1.97656 2.84367 1.97656 3.20834V18.7917C1.97656 19.1563 2.12143 19.5061 2.37929 19.7639C2.63715 20.0218 2.98689 20.1667 3.35156 20.1667H18.9349C19.2996 20.1667 19.6493 20.0218 19.9072 19.7639C20.165 19.5061 20.3099 19.1563 20.3099 18.7917V3.20834C20.3099 2.84367 20.165 2.49393 19.9072 2.23607C19.6493 1.97821 19.2996 1.83334 18.9349 1.83334Z" stroke="#486284" stroke-width="2.08333" stroke-linejoin="round"/>
<path d="M5.64307 8.73309C7.16687 6.89976 9.00021 5.98309 11.1431 5.98309C13.2856 5.98309 15.119 6.89976 16.6431 8.73309" stroke="#486284" stroke-width="2.08333" stroke-linecap="round"/>
<path d="M11.1431 14.2083C11.5077 14.2083 11.8575 14.0635 12.1153 13.8056C12.3732 13.5478 12.5181 13.198 12.5181 12.8333C12.5181 12.4687 12.3732 12.1189 12.1153 11.8611C11.8575 11.6032 11.5077 11.4583 11.1431 11.4583C10.7784 11.4583 10.4287 11.6032 10.1708 11.8611C9.91293 12.1189 9.76807 12.4687 9.76807 12.8333C9.76807 13.198 9.91293 13.5478 10.1708 13.8056C10.4287 14.0635 10.7784 14.2083 11.1431 14.2083Z" fill="#486284"/>
<path d="M8.85156 9.625L11.1469 12.8333" stroke="#486284" stroke-width="2.08333" stroke-linecap="round"/>
</g>
<defs>
<clipPath id="clip0_969_2402">
<rect width="22" height="22" fill="white" transform="translate(0.143066)"/>
</clipPath>
</defs>
</svg>
