<svg width="26" height="26" viewBox="0 0 26 26" fill="none" xmlns="http://www.w3.org/2000/svg">
<path d="M6.87109 23.2861H18.5048" stroke="#486284" stroke-width="1.5" stroke-linecap="round" stroke-linejoin="round"/>
<path d="M12.689 23.2857C18.4716 23.2857 23.1593 18.598 23.1593 12.8154H2.21875C2.21875 18.598 6.90647 23.2857 12.689 23.2857Z" stroke="#486284" stroke-width="1.5" stroke-linecap="round" stroke-linejoin="round"/>
<path d="M11.9669 12.8156C9.81762 12.8356 8.45262 10.5216 9.50988 8.6502C9.92832 7.90961 10.6615 7.40017 11.5015 7.26631C11.0277 5.16986 13.0012 3.34671 15.0537 3.98462C15.1112 4.0025 15.168 4.0222 15.2243 4.04383C16.0981 2.66817 17.9596 2.33027 19.2612 3.31086C20.951 1.98272 23.445 2.9819 23.7504 5.10943C23.8587 5.86475 23.6533 6.63154 23.1817 7.23147C24.3111 8.73155 23.6675 10.8964 21.902 11.5359C22.0082 11.9546 22.02 12.3917 21.937 12.8156" stroke="#486284" stroke-width="1.5" stroke-linecap="round" stroke-linejoin="round"/>
<path d="M13.8516 12.8156L18.5051 8.16211" stroke="#486284" stroke-width="1.5" stroke-linecap="round" stroke-linejoin="round"/>
<path d="M11.4102 7.28963C8.96546 4.68353 4.61635 5.70119 3.58173 9.12141C3.44757 9.56473 3.38054 10.0257 3.38287 10.4889C3.38287 11.3381 3.61555 12.1293 4.01114 12.8156" stroke="#486284" stroke-width="1.5" stroke-linecap="round" stroke-linejoin="round"/>
</svg>
