<svg width="21" height="20" viewBox="0 0 21 20" fill="none" xmlns="http://www.w3.org/2000/svg">
<g clip-path="url(#clip0_969_2421)">
<path d="M1.4541 4.15384H10.5852V19.1348H1.4541L1.4541 4.15384Z" stroke="#486284" stroke-width="1.5" stroke-linecap="round" stroke-linejoin="round"/>
<path d="M10.5852 12.5476H17.2738V19.1347H10.5852V12.5476Z" stroke="#486284" stroke-width="1.5" stroke-linecap="round" stroke-linejoin="round"/>
<path d="M4.79175 10.7162V7.03207M7.24781 7.03207V10.7162M4.79175 8.72059H7.24781" stroke="#486284" stroke-width="1.5" stroke-linecap="round" stroke-linejoin="round"/>
<path d="M19.9747 3.92854C19.9747 5.62355 16.9114 9.71474 16.9114 9.71474C16.9114 9.71474 13.8481 5.62355 13.8481 3.92854C13.8481 3.11611 14.1709 2.33695 14.7454 1.76247C15.3198 1.188 16.099 0.865265 16.9114 0.865265C17.7238 0.865265 18.503 1.188 19.0775 1.76247C19.652 2.33695 19.9747 3.11611 19.9747 3.92854Z" stroke="#486284" stroke-width="1.5" stroke-linecap="round" stroke-linejoin="round"/>
<path d="M16.9114 4.31966C16.7113 4.31966 16.5491 4.15744 16.5491 3.95732C16.5491 3.7572 16.7113 3.59497 16.9114 3.59497" stroke="#486284" stroke-width="1.5" stroke-linecap="round" stroke-linejoin="round"/>
<path d="M16.9114 4.31966C17.1115 4.31966 17.2737 4.15744 17.2737 3.95732C17.2737 3.7572 17.1115 3.59497 16.9114 3.59497" stroke="#486284" stroke-width="1.5" stroke-linecap="round" stroke-linejoin="round"/>
<path d="M6.02002 19.1347V16.5464" stroke="#486284" stroke-width="1.5" stroke-linecap="round" stroke-linejoin="round"/>
</g>
<defs>
<clipPath id="clip0_969_2421">
<rect width="20" height="20" fill="white" transform="translate(0.714355)"/>
</clipPath>
</defs>
</svg>
