<svg width="18" height="18" viewBox="0 0 18 18" fill="none" xmlns="http://www.w3.org/2000/svg">
<path d="M1.29652 16.4226C0.95078 16.4226 0.648259 16.2929 0.388956 16.0336C0.129652 15.7743 0 15.4718 0 15.126V4.7539C0 4.40816 0.129652 4.10564 0.388956 3.84634C0.648259 3.58703 0.95078 3.45738 1.29652 3.45738H5.18607V1.29652C5.18607 0.965185 5.31573 0.666268 5.57503 0.39976C5.83433 0.133252 6.13685 0 6.48259 0H10.8043C11.1501 0 11.4526 0.133252 11.7119 0.39976C11.9712 0.666268 12.1008 0.965185 12.1008 1.29652V3.45738H15.9904C16.3361 3.45738 16.6387 3.58703 16.898 3.84634C17.1573 4.10564 17.2869 4.40816 17.2869 4.7539V8.57863C17.2869 8.76071 17.2244 8.91067 17.0994 9.02852C16.9745 9.14638 16.8196 9.20528 16.6348 9.20528C16.4501 9.20528 16.2965 9.14313 16.1741 9.0188C16.0516 8.89463 15.9904 8.74069 15.9904 8.55702V4.7539H1.29652V15.126H8.38415C8.56783 15.126 8.72181 15.1886 8.84615 15.3136C8.97031 15.4385 9.03241 15.5934 9.03241 15.7782C9.03241 15.9629 8.97031 16.1165 8.84615 16.2389C8.72181 16.3613 8.56783 16.4226 8.38415 16.4226H1.29652ZM6.48259 3.45738H10.8043V1.29652H6.48259V3.45738ZM13.8295 18C12.6915 18 11.7119 17.5894 10.8908 16.7683C10.0696 15.9472 9.65906 14.9676 9.65906 13.8295C9.65906 12.6915 10.0696 11.7119 10.8908 10.8908C11.7119 10.0696 12.6915 9.65906 13.8295 9.65906C14.9676 9.65906 15.9472 10.0696 16.7683 10.8908C17.5894 11.7119 18 12.6915 18 13.8295C18 14.9676 17.5894 15.9472 16.7683 16.7683C15.9472 17.5894 14.9676 18 13.8295 18ZM14.1969 13.7863V11.5598C14.1969 11.4307 14.1537 11.3229 14.0672 11.2365C13.9808 11.1501 13.8727 11.1068 13.7431 11.1068C13.6134 11.1068 13.5054 11.1501 13.419 11.2365C13.3325 11.3229 13.2893 11.4308 13.2893 11.56V13.7647C13.2893 13.8521 13.3073 13.9368 13.3433 14.0188C13.3793 14.1008 13.4334 14.1745 13.5054 14.2401L15.1477 15.7527C15.2197 15.8247 15.3133 15.8572 15.4286 15.8499C15.5438 15.8427 15.6374 15.8031 15.7095 15.7311C15.7959 15.6447 15.8355 15.5438 15.8283 15.4286C15.8211 15.3133 15.7743 15.2197 15.6879 15.1477L14.1969 13.7863Z" fill="#486284"/>
</svg>
