<svg width="15" height="18" viewBox="0 0 15 18" fill="none" xmlns="http://www.w3.org/2000/svg">
<path d="M10.2308 2.23047H12.0769C12.4033 2.23047 12.7164 2.36014 12.9472 2.59095C13.178 2.82177 13.3077 3.13481 13.3077 3.46124V15.7689C13.3077 16.0953 13.178 16.4084 12.9472 16.6392C12.7164 16.87 12.4033 16.9997 12.0769 16.9997H2.23077C1.90434 16.9997 1.5913 16.87 1.36048 16.6392C1.12967 16.4084 1 16.0953 1 15.7689V3.46124C1 3.13481 1.12967 2.82177 1.36048 2.59095C1.5913 2.36014 1.90434 2.23047 2.23077 2.23047H4.07692" stroke="#486284" stroke-width="1.71" stroke-linecap="round" stroke-linejoin="round"/>
<path d="M8.99925 1H5.30694C4.62721 1 4.07617 1.55103 4.07617 2.23077V2.84615C4.07617 3.52588 4.62721 4.07692 5.30694 4.07692H8.99925C9.67898 4.07692 10.23 3.52588 10.23 2.84615V2.23077C10.23 1.55103 9.67898 1 8.99925 1Z" stroke="#486284" stroke-width="1.71" stroke-linecap="round" stroke-linejoin="round"/>
<path d="M6.29523 6.79688C6.00336 6.79688 5.76676 7.03348 5.76676 7.32535V8.81171H4.28042C3.98856 8.81171 3.75195 9.04831 3.75195 9.34017V11.0577C3.75195 11.3496 3.98856 11.5862 4.28042 11.5862H5.76676V13.0725C5.76676 13.3643 6.00336 13.601 6.29523 13.601H8.01277C8.30463 13.601 8.54123 13.3643 8.54123 13.0725V11.5862H10.0276C10.3194 11.5862 10.556 11.3496 10.556 11.0577V9.34017C10.556 9.04831 10.3194 8.81171 10.0276 8.81171H8.54123V7.32535C8.54123 7.03348 8.30463 6.79688 8.01277 6.79688H6.29523Z" stroke="#486284" stroke-width="1.71" stroke-linecap="round" stroke-linejoin="round"/>
</svg>
