<svg width="22" height="20" viewBox="0 0 22 20" fill="none" xmlns="http://www.w3.org/2000/svg">
<path d="M20.2308 1.11133H1.76923C1.34443 1.11133 1 1.45742 1 1.88427V14.2514C1 14.6783 1.34443 15.0244 1.76923 15.0244H20.2308C20.6556 15.0244 21 14.6783 21 14.2514V1.88427C21 1.45742 20.6556 1.11133 20.2308 1.11133Z" stroke="#486284" stroke-width="1.71" stroke-linecap="round" stroke-linejoin="round"/>
<path d="M9.46229 15.0244L7.92383 18.8891" stroke="#486284" stroke-width="1.71" stroke-linecap="round" stroke-linejoin="round"/>
<path d="M12.5391 15.0244L14.0775 18.8891" stroke="#486284" stroke-width="1.71" stroke-linecap="round" stroke-linejoin="round"/>
<path d="M6.38477 18.8887H15.6155" stroke="#486284" stroke-width="1.71" stroke-linecap="round" stroke-linejoin="round"/>
<path d="M6.07031 8.90366H8.43366C8.80083 8.90366 9.15296 8.75713 9.41258 8.49626L11.4544 6.44456C11.9951 5.90129 12.8717 5.90129 13.4123 6.44456L15.8597 8.90366" stroke="#486284" stroke-width="1.69905" stroke-linecap="round"/>
</svg>
