<svg width="26" height="26" viewBox="0 0 26 26" fill="none" xmlns="http://www.w3.org/2000/svg">
<g clip-path="url(#clip0_1365_16554)">
<path d="M22.75 10.5625C22.75 10.1315 22.5788 9.71819 22.2741 9.41345C21.9694 9.10871 21.556 8.9375 21.125 8.9375H1.625V25.1875H6.5V17.0625C6.5 16.2006 6.84241 15.3739 7.4519 14.7644C8.0614 14.1549 8.88805 13.8125 9.75 13.8125H21.125C21.556 13.8125 21.9694 13.6413 22.2741 13.3366C22.5788 13.0319 22.75 12.6185 22.75 12.1875V10.5625Z" stroke="#486284" stroke-width="1.5" stroke-linecap="round" stroke-linejoin="round"/>
<path d="M1.625 8.9375C1.625 6.78262 2.48103 4.71599 4.00476 3.19226C5.52849 1.66853 7.59512 0.8125 9.75 0.8125H16.25C16.25 1.67445 15.9076 2.5011 15.2981 3.1106C14.6886 3.72009 13.8619 4.0625 13 4.0625H11.375C10.0821 4.0625 8.84209 4.57612 7.92786 5.49036C7.01362 6.40459 6.5 7.64457 6.5 8.9375H1.625Z" stroke="#486284" stroke-width="1.5" stroke-linecap="round" stroke-linejoin="round"/>
<path d="M17.0625 17.0625H21.125" stroke="#486284" stroke-width="1.5" stroke-linecap="round" stroke-linejoin="round"/>
<path d="M19.5 20.3125V25.1875" stroke="#486284" stroke-width="1.5" stroke-linecap="round" stroke-linejoin="round"/>
<path d="M22.75 20.3125L24.375 24.375" stroke="#486284" stroke-width="1.5" stroke-linecap="round" stroke-linejoin="round"/>
<path d="M16.25 20.3125L14.625 24.375" stroke="#486284" stroke-width="1.5" stroke-linecap="round" stroke-linejoin="round"/>
</g>
<defs>
<clipPath id="clip0_1365_16554">
<rect width="26" height="26" fill="white"/>
</clipPath>
</defs>
</svg>
